<svg width="80" height="71" viewBox="0 0 80 71" fill="none" xmlns="http://www.w3.org/2000/svg">
<g clip-path="url(#clip0_93_208)">
<path d="M13.5032 7.7425C12.0413 7.81951 10.8103 8.37809 9.81005 9.4181C8.84827 10.4582 8.15577 11.6523 7.73259 13.0005C7.30945 14.3101 7.09786 15.6583 7.09786 17.045C7.09786 18.4318 7.29018 19.7993 7.67491 21.1475C8.09809 22.4957 8.80977 23.6897 9.81005 24.7298C10.8103 25.7313 12.0413 26.2706 13.5032 26.3477H40.6818V34.0902H14.138H11.4835C8.79055 33.9361 6.5785 32.9153 4.84732 31.0279C3.11612 29.1018 1.86583 26.9255 1.09641 24.4987C0.365469 22.0719 0 19.5874 0 17.045C0 15.1576 0.211589 13.2894 0.634764 11.4404C1.05794 9.59146 1.71194 7.83885 2.59677 6.18246C3.52006 4.48759 4.73191 3.04308 6.23227 1.84896C7.77109 0.654838 9.5215 0.0385198 11.4835 0H12.5799H40.6818V7.7425H13.5032Z" fill="#FDFBF7"/>
<path d="M7.79032 70.558H0V40.1659C0.0384706 39.0873 0.442412 38.2014 1.21182 37.508C1.98124 36.7761 2.90453 36.4102 3.98171 36.4102H6.80932H13.9072H28.1605C28.3914 36.4102 28.6222 36.4294 28.853 36.468H29.1992C31.8922 36.545 34.1042 37.1613 35.8354 38.3169C37.5666 39.4725 38.8169 40.8015 39.5863 42.3037C40.3557 43.7675 40.7405 45.2505 40.7405 46.7529C40.7405 48.2936 40.3557 49.815 39.5863 51.3174C38.8554 52.7811 37.6051 54.091 35.8354 55.2465C34.1042 56.4021 31.8922 57.0184 29.1992 57.0953H19.043C19.3508 59.0214 19.9855 60.4464 20.9473 61.3712C21.8706 62.2956 23.044 62.758 24.4674 62.758H40.6818V70.558H23.4286C20.5818 70.5967 18.0043 69.422 15.696 67.1491C13.3878 64.8766 11.9836 62.18 11.4835 59.0601C10.791 55.5929 10.4448 53.6477 10.4448 53.224C10.4448 52.1458 10.8103 51.2405 11.5412 50.5087C12.3106 49.7381 13.2339 49.3526 14.3111 49.3526H29.5455C30.2764 49.3144 30.8727 49.1601 31.3344 48.8907C31.8345 48.5826 32.2 48.2549 32.4308 47.9085C32.6616 47.523 32.777 47.138 32.777 46.7529C32.777 46.3675 32.6616 46.0015 32.4308 45.6547C32.2 45.2698 31.8345 44.9423 31.3344 44.6726C30.8727 44.3645 30.2764 44.1912 29.5455 44.1527H13.9072H9.29068C8.29045 44.1912 7.79032 44.692 7.79032 45.6547V70.558Z" fill="#FDFBF7"/>
<path d="M42.7271 70.5448V53.0506C42.7655 50.3157 43.1502 47.7351 43.8812 45.3083C44.6506 42.8815 45.9007 40.84 47.6321 39.1836C49.4016 37.4887 51.633 36.5642 54.3261 36.4102H79.8321V44.1527H56.288C54.8261 44.2297 53.6143 44.7882 52.6525 45.8281C51.6907 46.8685 51.0752 48.0623 50.8057 49.4104C50.5752 50.7203 50.4789 52.1649 50.5175 53.7442V70.5448H42.7271ZM54.0952 52.1262H79.8321V59.8688H54.0952V52.1262Z" fill="#FDFBF7"/>
<path d="M78.9661 18.925C79.6552 20.473 79.9998 22.0404 79.9998 23.6272C79.9998 25.1752 79.637 26.7233 78.9116 28.2713C78.1861 29.7807 77.007 31.1352 75.3748 32.335C73.7425 33.496 71.6566 34.0765 69.117 34.0765C68.6361 34.1346 68.3552 34.1346 68.138 34.1346H46.2639C45.2845 34.0959 44.4501 33.7282 43.7609 33.0316C43.108 32.2963 42.7633 31.4062 42.7271 30.3612V3.77338C42.7633 2.72845 43.108 1.85766 43.7609 1.16104C44.4501 0.425715 45.2845 0.0387012 46.2639 0H64.982C65.1993 0 65.4543 0 65.9611 0.0580521C68.5007 0.135453 70.5866 0.754675 72.2189 1.91572C73.8511 3.07676 75.0302 4.41196 75.7557 5.92131C76.4811 7.39196 76.8439 8.88196 76.8439 10.3913C76.8439 11.9394 76.4993 13.4488 75.8098 14.9194C75.7739 14.9968 75.7375 15.0548 75.7011 15.0936C77.1884 16.2159 78.2766 17.493 78.9661 18.925ZM69.4439 26.3557C70.133 26.3943 70.6952 26.2589 71.1307 25.9493C71.6021 25.6396 71.9466 25.2913 72.1643 24.9043C72.382 24.4786 72.4907 24.0529 72.4907 23.6272C72.4907 23.3563 72.382 22.9886 72.1643 22.5242C71.9466 22.0211 71.6021 21.6147 71.1307 21.3051C70.6952 20.9955 70.133 20.8213 69.4439 20.7827H65.9611H50.073V24.7882C50.073 25.8332 50.5807 26.3557 51.5961 26.3557H52.0316H69.4439ZM68.0289 12.4812C68.4643 12.2103 68.7907 11.9006 69.0084 11.5523C69.2261 11.1653 69.3348 10.7783 69.3348 10.3913C69.3348 10.0043 69.2261 9.63666 69.0084 9.2883C68.7907 8.90131 68.4461 8.57234 67.9743 8.3014C67.5393 7.99187 66.977 7.81769 66.288 7.77901H51.5961C50.5807 7.77901 50.073 8.3014 50.073 9.34638V13.0036H66.288C66.977 12.965 67.5575 12.7908 68.0289 12.4812Z" fill="#FDFBF7"/>
</g>
<defs>
<clipPath id="clip0_93_208">
<rect width="80" height="71" fill="white"/>
</clipPath>
</defs>
</svg>
