<svg width="50" height="50" viewBox="0 0 50 50" fill="none" xmlns="http://www.w3.org/2000/svg">
<path id="CD" d="M25 0C38.8071 0 50 11.1929 50 25C50 38.8071 38.8071 50 25 50C11.1929 50 0 38.8071 0 25C0 11.1929 11.1929 0 25 0ZM34.0059 16C33.7129 16.0293 33.4492 16.1875 33.2266 16.4102C32.9805 16.6855 32.8398 17.0312 32.7344 17.3828C32.5176 18.127 32.377 18.8887 32.2539 19.6562C32.1543 20.2656 32.0488 20.8809 31.9551 21.4961C31.8379 22.3223 31.75 23.1543 31.6211 23.9746C31.5391 24.5137 31.293 25.0117 31.0469 25.4922C30.877 25.8379 30.707 26.1836 30.5137 26.5117C30.4316 26.6523 30.3203 26.793 30.1621 26.8457C30.0449 26.8867 29.8984 26.8633 29.8105 26.7637C29.6875 26.623 29.6641 26.4238 29.6406 26.2422C29.5586 25.5508 29.7051 24.8652 29.834 24.1914C29.9863 23.3711 30.1328 22.5449 30.2852 21.7246C30.3965 21.127 30.4961 20.5234 30.6191 19.9258C30.7598 19.2461 30.9238 18.5664 30.9707 17.875C31.0059 17.4355 31.0527 16.9727 30.8828 16.5566C30.7891 16.3457 30.6367 16.123 30.4023 16.0527C30.2207 16 30.0039 15.9941 29.834 16.0938C29.6582 16.1875 29.5234 16.3398 29.4121 16.498C29.1484 16.8496 28.9961 17.2715 28.8789 17.6875C28.6504 18.5137 28.4746 19.3574 28.375 20.2129C28.3281 20.5527 28.2988 20.8984 28.2695 21.2441C28.252 21.4668 28.2285 21.6836 28.2285 21.9062C28.2285 22.0293 28.1934 22.1641 28.0938 22.2402C27.9824 22.3223 27.8301 22.3164 27.6953 22.3105C27.2617 22.2871 26.8281 22.4043 26.4648 22.6328C26.1367 22.832 25.8613 23.1074 25.6504 23.4238C25.3867 23.7988 25.2402 24.2324 25.082 24.6602C24.918 25.0938 24.7539 25.5391 24.4844 25.9258C24.291 26.207 24.0801 26.4766 23.8398 26.7168C23.5879 26.9629 23.2832 27.1914 22.9258 27.2676C22.6152 27.3379 22.2988 27.1855 22.0879 26.9688C21.9062 26.7578 21.8184 26.4824 21.7891 26.2129C21.7773 26.1133 21.7715 25.9961 21.8477 25.9199C21.9355 25.832 22.0703 25.8379 22.1875 25.8262C22.9902 25.7617 23.7344 25.252 24.0977 24.5371C24.3613 24.0156 24.4668 23.4121 24.3789 22.8379C24.3262 22.498 24.1973 22.1641 23.957 21.918C23.6699 21.625 23.2715 21.4668 22.8672 21.4609C22.1406 21.4434 21.4375 21.8125 21.0039 22.3867C20.7109 22.7676 20.5234 23.2188 20.4004 23.6816C20.2832 24.1328 20.2012 24.5957 20.043 25.0352C19.9141 25.3984 19.7324 25.75 19.457 26.0254C19.3223 26.1543 19.1465 26.2598 18.9531 26.2422C18.8418 26.2363 18.748 26.1426 18.7246 26.0371C18.6836 25.8906 18.707 25.7383 18.7305 25.5918C18.8125 25.1465 18.9648 24.7188 19.0879 24.2852C19.1582 24.0625 19.1348 23.8105 19.0645 23.5879C18.959 23.2539 18.6777 23.002 18.3613 22.8789C18.0918 22.7852 17.7988 22.8379 17.5176 22.8145C17.3945 22.8086 17.2715 22.7324 17.2305 22.6094C17.1895 22.4629 17.2363 22.3164 17.2773 22.1758C17.3418 21.959 17.248 21.7129 17.0664 21.584C16.9023 21.4609 16.6855 21.4258 16.4922 21.4609C16.2871 21.502 16.1113 21.6367 15.9707 21.7832C15.748 22.0352 15.6191 22.3809 15.6602 22.7207C15.7188 22.9668 15.7715 23.2246 15.7129 23.4766C15.625 23.8574 15.3906 24.1855 15.168 24.4961C14.9453 24.8301 14.7168 25.1582 14.4531 25.457C13.9609 26.0371 13.3398 26.5293 12.625 26.8047C12.0918 27.0098 11.4941 27.0859 10.9258 26.9746C10.5273 26.8984 10.1523 26.7227 9.8418 26.4648C9.60156 26.2656 9.4082 26.0137 9.26172 25.7324C9.02734 25.2871 8.91016 24.7949 8.85156 24.3027C8.67578 22.791 8.97461 21.2324 9.6543 19.873C9.88867 19.3984 10.1816 18.9414 10.5742 18.5781C10.9375 18.2441 11.4004 18.0098 11.8926 17.9453C12.3086 17.8867 12.7715 17.9629 13.0996 18.2441C13.334 18.4375 13.4336 18.748 13.4219 19.0469C13.4102 19.5801 13.123 20.0547 13.0645 20.5762C13.0352 20.7988 13.0645 21.0273 13.1582 21.2266C13.2402 21.4141 13.3926 21.5781 13.5918 21.6367C13.8086 21.7012 14.0488 21.6426 14.2305 21.5195C14.4414 21.3789 14.5879 21.1621 14.6816 20.9336C14.7812 20.6934 14.834 20.4297 14.8984 20.1777C15.1035 19.3516 15.4258 18.5547 15.8535 17.8164C15.9824 17.5996 16.1172 17.3828 16.1992 17.1426C16.252 16.9727 16.2754 16.791 16.2344 16.6152C16.1699 16.3516 15.9648 16.123 15.7012 16.0469C15.4199 15.9648 15.0977 16.0527 14.8984 16.2695C14.7402 16.4453 14.6523 16.6797 14.4648 16.8262C14.3418 16.9199 14.1719 16.9375 14.0254 16.8906C13.8145 16.8262 13.6387 16.6973 13.4395 16.6094C12.7773 16.3047 12.0156 16.2637 11.3066 16.4219C10.5625 16.5859 9.88867 16.9902 9.33203 17.5117C8.82227 17.9863 8.41797 18.5605 8.07812 19.1699C7.65039 19.9492 7.33398 20.7871 7.1582 21.6602C7.05859 22.1406 7.01172 22.6328 7 23.125V23.582C7.0293 24.25 7.08789 24.918 7.25781 25.5684C7.38086 26.0254 7.55078 26.4707 7.77344 26.8867C8.06055 27.4258 8.46484 27.9121 8.96875 28.2637C9.26172 28.4688 9.5957 28.6094 9.93555 28.709C10.5098 28.8789 11.125 28.9258 11.7168 28.8438C12.5312 28.7324 13.2988 28.3867 13.9668 27.9121C14.5527 27.4844 15.0977 26.998 15.5547 26.4355C16.0293 25.8555 16.416 25.2051 16.7031 24.5137C16.75 24.4141 16.791 24.3145 16.873 24.2383C16.9551 24.1621 17.0781 24.0977 17.1953 24.1445C17.3008 24.1914 17.4121 24.2559 17.4648 24.3613C17.5293 24.4961 17.5176 24.6543 17.4824 24.8008C17.418 25.0879 17.3125 25.3574 17.2305 25.6387C17.1016 26.0664 17.0078 26.5234 17.0723 26.9746C17.125 27.3203 17.2598 27.666 17.5117 27.9121C17.7461 28.1406 18.0742 28.2637 18.4023 28.2637C18.8301 28.2637 19.2402 28.1055 19.5918 27.877C19.8203 27.7305 20.0254 27.5371 20.1836 27.3145C20.2363 27.2441 20.3184 27.1738 20.4121 27.1973C20.5176 27.2207 20.5703 27.3262 20.6113 27.4199C20.7578 27.7773 21.0098 28.082 21.3262 28.2988C21.7012 28.5625 22.1641 28.7031 22.627 28.6973C23.0664 28.709 23.4941 28.5742 23.8809 28.3691C24.2617 28.1641 24.5781 27.8652 24.8945 27.5723C24.9355 27.5312 24.9883 27.4844 25.0527 27.5078C25.1348 27.5312 25.1758 27.6191 25.2051 27.6953C25.416 28.2344 25.9375 28.6328 26.5117 28.6914C26.9863 28.7383 27.4785 28.5684 27.8184 28.2285C27.9414 28.1055 28.0293 27.9473 28.1816 27.8594C28.2812 27.7949 28.4277 27.7832 28.5215 27.8652C28.6445 27.9707 28.6738 28.1406 28.75 28.2754C28.9141 28.5801 29.2598 28.7676 29.6055 28.7734C29.9336 28.7793 30.25 28.6504 30.5137 28.4629C30.9238 28.1699 31.2168 27.748 31.5273 27.3555C31.5918 27.2734 31.6797 27.1797 31.7969 27.1973C31.9023 27.209 31.9316 27.3262 31.9668 27.4082C32.2305 27.9941 32.8809 28.3516 33.5137 28.3105C34.0586 28.2812 34.5625 28.0117 34.9609 27.6543C35.1133 27.5254 35.2363 27.3555 35.4238 27.2734C35.5293 27.2266 35.6582 27.2266 35.7461 27.3086C35.875 27.4316 35.916 27.6074 36.0039 27.7539C36.1855 28.1055 36.6133 28.3047 37.0059 28.2285C37.3984 28.1523 37.7383 27.8828 37.9199 27.5312C37.9785 27.4375 38.0312 27.3262 38.1367 27.2793C38.2246 27.2852 38.2422 27.3906 38.2539 27.4609C38.3184 28 38.2129 28.5332 38.1426 29.0605C38.125 29.1719 38.0898 29.3066 37.9785 29.3594C37.8203 29.4414 37.6387 29.3828 37.4746 29.3711C37.1758 29.3477 36.877 29.3184 36.5781 29.2949C36.0977 29.2539 35.6113 29.2539 35.1367 29.3066C34.7207 29.3594 34.2988 29.4648 33.9297 29.6875C33.543 29.916 33.2148 30.2441 32.998 30.6367C32.8105 30.9824 32.7109 31.3809 32.7461 31.7734C32.7812 32.207 32.9863 32.6113 33.291 32.916C33.625 33.2559 34.082 33.4727 34.5508 33.5605C35.0078 33.6426 35.4824 33.6016 35.9336 33.502C36.7598 33.3086 37.5391 32.8984 38.1426 32.3008C38.6875 31.7676 39.0918 31.082 39.2734 30.3379C39.2793 30.2969 39.3262 30.291 39.3555 30.2793C39.8477 30.1035 40.3164 29.8457 40.7148 29.5059C41.2715 29.043 41.7168 28.457 42.0391 27.8125C42.1562 27.5781 42.3145 27.3496 42.3496 27.0801V26.9219C42.332 26.7871 42.2734 26.6523 42.1621 26.5703C42.0156 26.4531 41.7988 26.4297 41.6289 26.5117C41.5176 26.5469 41.4473 26.6465 41.3887 26.7461C41.248 26.9688 41.1426 27.209 40.9961 27.4316C40.6797 27.9238 40.2637 28.3457 39.8418 28.75C39.7832 28.8086 39.6777 28.7559 39.6836 28.668C39.7539 27.8594 39.8477 27.0508 39.9531 26.2422C40.0996 24.9473 40.2812 23.6523 40.4453 22.3574C40.4629 22.1406 40.4336 21.9062 40.2812 21.7363C40.1699 21.6133 40.0176 21.5195 39.8535 21.5137C39.6953 21.5137 39.5254 21.5605 39.4141 21.6836C39.2441 21.8594 39.1562 22.0879 39.0859 22.3164C38.957 22.7617 38.875 23.2188 38.793 23.6758C38.6934 24.2148 38.582 24.7598 38.3477 25.2578C38.2305 25.5039 38.084 25.7383 37.9023 25.9434C37.7852 26.0781 37.6211 26.1895 37.4336 26.1895C37.2695 26.1895 37.1289 26.0781 37.0469 25.9375C36.9473 25.7676 36.9297 25.5684 36.9238 25.3809C36.8945 24.5605 37.0469 23.7461 37.3105 22.9727C37.3867 22.7559 37.4336 22.5273 37.4453 22.2988C37.4453 22.1289 37.416 21.9473 37.3047 21.8066C37.0762 21.5254 36.625 21.4375 36.3262 21.6484C36.1035 21.8008 35.9863 22.0527 35.8926 22.2988C35.6465 22.9434 35.5762 23.6348 35.4883 24.3145C35.4238 24.7656 35.2949 25.2051 35.0723 25.6035C34.9141 25.9023 34.6973 26.1602 34.4688 26.4121C34.3047 26.582 34.123 26.7578 33.8945 26.8281C33.7246 26.8809 33.5371 26.8281 33.4082 26.7109C33.2676 26.582 33.1914 26.3887 33.1562 26.207C33.0918 25.873 33.0684 25.5332 33.0801 25.1934C33.0918 24.8301 33.0801 24.4609 33.168 24.1094C33.2207 23.8984 33.291 23.6875 33.3613 23.4824C33.7598 22.3047 34.2461 21.1562 34.5918 19.9609C34.8613 19.0586 35.0664 18.1211 35.0195 17.1777C35.002 16.8672 34.9492 16.5391 34.75 16.293C34.6152 16.123 34.3984 16.0176 34.1816 16H34.0059ZM35.541 30.4727C35.8867 30.4492 36.2324 30.4785 36.5781 30.4961C36.877 30.5078 37.1758 30.5371 37.4746 30.5547C37.5449 30.5547 37.627 30.5371 37.6914 30.584C37.7441 30.625 37.709 30.7012 37.6855 30.748C37.5977 30.8887 37.5156 31.0352 37.4102 31.1641C36.8828 31.8145 36.0918 32.2422 35.2598 32.3359C34.9961 32.3652 34.7148 32.3477 34.4629 32.2363C34.2812 32.1543 34.1172 32.0195 34.0293 31.8379C33.9414 31.6621 33.9766 31.4512 34.0586 31.2754C34.1816 30.9941 34.4277 30.7773 34.7148 30.6602C34.9785 30.5488 35.2598 30.4902 35.541 30.4727ZM27.707 23.4648C27.8418 23.4414 27.9883 23.4297 28.1113 23.5059C28.2109 23.5645 28.252 23.6816 28.252 23.7871C28.252 23.9219 28.2109 24.0508 28.2051 24.1855C28.1816 24.5781 28.1816 24.9707 28.2109 25.3633C28.2285 25.5566 28.2695 25.7559 28.2051 25.9434C28.0996 26.248 27.9297 26.5352 27.666 26.7285C27.4551 26.8867 27.1973 27.0391 26.9219 26.998C26.8164 26.9922 26.7109 26.9512 26.6348 26.875C26.5176 26.7637 26.4473 26.6113 26.4062 26.459C26.2715 25.9609 26.2832 25.4336 26.4062 24.9355C26.4883 24.584 26.6465 24.25 26.875 23.9746C27.0859 23.7168 27.3789 23.5234 27.707 23.4648ZM22.6855 22.8086C22.7676 22.7793 22.8672 22.7852 22.9434 22.832C23.0664 22.9023 23.1367 23.0488 23.1484 23.1895C23.166 23.4004 23.1133 23.6113 23.0371 23.8047C22.9141 24.1094 22.7383 24.4082 22.4629 24.6016C22.3398 24.6953 22.1992 24.7832 22.041 24.7773C21.959 24.7773 21.8711 24.7129 21.8652 24.625C21.8301 24.332 21.918 24.0391 22.0117 23.7578C22.0996 23.4941 22.2285 23.248 22.3984 23.0312C22.4746 22.9375 22.5684 22.8438 22.6855 22.8086Z" fill="#FDFBF7"/>
</svg>
