<svg width="50" height="50" viewBox="0 0 50 50" fill="none" xmlns="http://www.w3.org/2000/svg">
<path id="IG" d="M24.999 0C38.8061 0 49.999 11.1929 49.999 25C49.999 38.8071 38.8061 50 24.999 50C11.1919 50 -0.000976562 38.8071 -0.000976562 25C-0.000976562 11.1929 11.1919 0 24.999 0ZM24.999 10C20.9253 10 20.4143 10.0168 18.8145 10.0898C17.2183 10.1627 16.1278 10.4163 15.1738 10.7871C14.1875 11.1704 13.3505 11.6836 12.5166 12.5176C11.6826 13.3515 11.1694 14.1884 10.7861 15.1748C10.4154 16.1288 10.1617 17.2191 10.0889 18.8154C10.0159 20.4153 9.99902 20.9264 9.99902 25C9.99902 29.0738 10.0159 29.5847 10.0889 31.1846C10.1617 32.7809 10.4154 33.8712 10.7861 34.8252C11.1694 35.8116 11.6826 36.6484 12.5166 37.4824C13.3505 38.3163 14.1875 38.8287 15.1738 39.2119C16.1279 39.5827 17.2181 39.8363 18.8145 39.9092C20.4143 39.9822 20.9253 40 24.999 40C29.0728 40 29.5837 39.9822 31.1836 39.9092C32.7799 39.8363 33.8702 39.5827 34.8242 39.2119C35.8106 38.8287 36.6476 38.3163 37.4814 37.4824C38.3153 36.6484 38.8287 35.8116 39.2119 34.8252C39.5827 33.8712 39.8363 32.7809 39.9092 31.1846C39.9822 29.5847 39.999 29.0738 39.999 25C39.999 20.9264 39.9822 20.4153 39.9092 18.8154C39.8363 17.2191 39.5827 16.1288 39.2119 15.1748C38.8287 14.1884 38.3153 13.3515 37.4814 12.5176C36.6476 11.6836 35.8106 11.1704 34.8242 10.7871C33.8702 10.4163 32.7798 10.1627 31.1836 10.0898C29.5837 10.0168 29.0728 10 24.999 10ZM24.999 12.7031C29.0041 12.7031 29.4789 12.7179 31.0605 12.79C32.5229 12.8568 33.3171 13.1013 33.8457 13.3066C34.5458 13.5788 35.0455 13.9038 35.5703 14.4287C36.0953 14.9537 36.4203 15.4533 36.6924 16.1533C36.8978 16.6819 37.1422 17.4762 37.209 18.9385C37.2811 20.5202 37.2959 20.9949 37.2959 25C37.2959 29.0051 37.2811 29.4798 37.209 31.0615C37.1422 32.5239 36.8977 33.3181 36.6924 33.8467C36.4203 34.5467 36.0951 35.0465 35.5703 35.5713C35.0453 36.0961 34.5458 36.4212 33.8457 36.6934C33.3171 36.8988 32.5229 37.1432 31.0605 37.21C29.4792 37.2821 29.0045 37.2969 24.999 37.2969C20.9935 37.2969 20.519 37.2821 18.9375 37.21C17.4752 37.1432 16.6809 36.8988 16.1523 36.6934C15.4522 36.4212 14.9526 36.0962 14.4277 35.5713C13.9029 35.0465 13.5778 34.5467 13.3057 33.8467C13.1003 33.3181 12.8558 32.5239 12.7891 31.0615C12.7169 29.4798 12.7021 29.0051 12.7021 25C12.7021 20.9949 12.7169 20.5202 12.7891 18.9385C12.8558 17.4762 13.1003 16.6819 13.3057 16.1533C13.5778 15.4532 13.9027 14.9536 14.4277 14.4287C14.9526 13.9037 15.4522 13.5788 16.1523 13.3066C16.6809 13.1013 17.4752 12.8568 18.9375 12.79C20.5191 12.7179 20.9939 12.7031 24.999 12.7031ZM25.0059 17.3037C20.752 17.304 17.3037 20.7529 17.3037 25.0068C17.3038 29.2607 20.752 32.7087 25.0059 32.709C29.2599 32.709 32.7089 29.2609 32.709 25.0068C32.709 20.7527 29.26 17.3037 25.0059 17.3037ZM25.0059 20.0068C27.7674 20.0068 30.0059 22.2455 30.0059 25.0068C30.0058 27.7681 27.7673 30.0068 25.0059 30.0068C22.2447 30.0066 20.0059 27.768 20.0059 25.0068C20.0059 22.2456 22.2447 20.0071 25.0059 20.0068ZM33.0127 15.1953C32.0187 15.1953 31.2131 16.0011 31.2129 16.9951C31.2129 17.9891 32.0186 18.7959 33.0127 18.7959C34.0067 18.7957 34.8125 17.989 34.8125 16.9951C34.8123 16.0012 34.0066 15.1955 33.0127 15.1953Z" fill="#1C1C1C"/>
</svg>
