<svg width="50" height="50" viewBox="0 0 50 50" fill="none" xmlns="http://www.w3.org/2000/svg">
<path id="IN" d="M25 0C38.8071 0 50 11.1929 50 25C50 38.8071 38.8071 50 25 50C11.1929 50 0 38.8071 0 25C0 11.1929 11.1929 0 25 0ZM13.1348 19.8633V35.459H18.0078V19.8633H13.1348ZM31.3184 19.7168C28.5254 19.7168 26.7773 21.2402 26.4551 22.3145V19.8633H20.9766C21.0449 21.1621 20.9766 35.459 20.9766 35.459H26.4551V27.0312C26.4551 26.5527 26.4355 26.084 26.5723 25.752C26.9434 24.8145 27.7539 23.8379 29.209 23.8379C31.1133 23.8379 31.9727 25.2832 31.9727 27.3926V35.459H37.5V26.7871C37.5 21.9629 34.7852 19.7168 31.3184 19.7168ZM15.4688 12.5C13.6719 12.5 12.4902 13.6621 12.4902 15.2051C12.4902 16.7188 13.6328 17.9102 15.4004 17.9102H15.4395C17.2754 17.9102 18.418 16.709 18.4082 15.2051C18.3691 13.6621 17.2656 12.5 15.4688 12.5Z" fill="#FCBA04"/>
</svg>
