<svg width="50" height="50" viewBox="0 0 50 50" fill="none" xmlns="http://www.w3.org/2000/svg">
<g id="OD" clip-path="url(#clip0_7_136)">
<path id="Vector" d="M25 0C11.1891 0 0 11.1891 0 25C0 38.8109 11.1891 50 25 50C38.8109 50 50 38.8109 50 25C50 11.1891 38.8109 0 25 0ZM15.3484 9.12344C16.4484 9.12344 17.325 10.0188 17.325 11.0922C17.325 12.1672 16.4484 13.0688 15.3484 13.0688C14.2672 13.0625 13.3797 12.1828 13.3797 11.0922C13.3797 10.0031 14.2594 9.12344 15.3484 9.12344ZM13.85 15.4453H16.8547V36.3687H13.85V15.4453ZM21.2734 15.4453H29.3938C37.125 15.4453 40.5266 20.9781 40.5266 25.9187C40.5266 31.2922 36.3281 36.3859 29.4344 36.3859H21.2719L21.2734 15.4453ZM24.275 18.1641V33.675H29.0609C35.8813 33.675 37.4438 28.5 37.4438 25.9187C37.4438 21.7203 34.7672 18.1641 28.9062 18.1641H24.275Z" fill="#1C1C1C"/>
</g>
<defs>
<clipPath id="clip0_7_136">
<rect width="50" height="50" fill="white"/>
</clipPath>
</defs>
</svg>
